<?xml version="1.0" encoding="UTF-8"?>
<svg id="Layer_1" data-name="Layer 1" xmlns="http://www.w3.org/2000/svg" viewBox="0 0 100 100">
  <defs>
    <style>
      .cls-1 {
        fill: #fff;
        stroke-width: 0px;
      }
    </style>
  </defs>
  <path class="cls-1" d="m25.5,79.11c-1.17,0-2.31-.46-3.17-1.32-1.13-1.13-1.57-2.73-1.18-4.27l3.2-12.81c-2.37-5.45-2.97-11.42-1.74-17.29,2.41-11.52,11.82-20.44,23.42-22.2h0c8.38-1.27,16.81,1.15,23.13,6.64,6.32,5.49,9.9,13.45,9.82,21.82-.15,14.62-12.14,27.25-26.72,28.15-4.38.27-8.63-.44-12.65-2.11l-13,3.25c-.37.09-.74.14-1.11.14Zm20.98-54.92h0c-10.37,1.57-18.78,9.55-20.94,19.85-1.13,5.42-.53,10.92,1.75,15.91.14.31.17.66.09.99l-3.33,13.31c-.19.74.21,1.24.39,1.42.18.18.68.58,1.42.39l13.49-3.37c.32-.08.66-.05.96.08,3.73,1.62,7.68,2.32,11.75,2.06,13.05-.8,23.77-12.1,23.91-25.18.08-7.49-3.12-14.61-8.78-19.53-5.65-4.91-13.21-7.08-20.72-5.94Z"/>
</svg>