<svg width="24" height="24" viewBox="0 0 24 24" fill="none" xmlns="http://www.w3.org/2000/svg">
    <path d="M23.4145 11.7072C23.3857 11.6256 22.6369 9.68639 20.8705 7.74239C20.6929 7.54559 20.5105 7.35839 20.3281 7.17599L19.1569 8.34719C19.3105 8.49599 19.4593 8.6496 19.6081 8.8128C20.7985 10.1088 21.4801 11.4288 21.7393 12C21.4753 12.5712 20.7985 13.8912 19.6081 15.1872C17.5489 17.4336 14.9857 18.576 12.0001 18.576C11.0497 18.576 10.1425 18.4608 9.27846 18.2304L7.96326 19.5456C9.23046 20.0016 10.5841 20.232 12.0001 20.232C15.4465 20.232 18.5137 18.8592 20.8705 16.2624C22.6369 14.3184 23.3809 12.3792 23.4145 12.2976L23.5249 12.0048L23.4145 11.712V11.7072Z" fill="#77828E"/>
    <path d="M12.2737 15.2352L10.7665 16.7424C11.1601 16.8432 11.5729 16.9008 12.0001 16.9008C14.7025 16.9008 16.8961 14.7024 16.8961 12.0048C16.8961 11.5776 16.8433 11.1648 16.7377 10.7712L15.2305 12.2784C15.0961 13.848 13.8433 15.1056 12.2737 15.2352Z" fill="#77828E"/>
    <path d="M9.17282 15.9984L10.368 14.8032L14.8032 10.368L15.9984 9.1728L17.8944 7.2768L19.0752 6.096L21.6048 3.5664L20.4336 2.3952L17.6496 5.1792C17.1312 4.896 16.5888 4.6512 16.0368 4.4544C14.7696 3.9984 13.4208 3.768 12 3.768C8.55362 3.768 5.48642 5.1408 3.12962 7.7424C1.36322 9.6864 0.61922 11.6256 0.58562 11.7072L0.47522 12L0.58562 12.2928C0.61442 12.3744 1.36322 14.3136 3.12962 16.2576C3.30722 16.4544 3.48962 16.6416 3.67202 16.824C4.07522 17.2176 4.49282 17.5776 4.92962 17.904L2.40002 20.4336L3.57122 21.6048L6.35522 18.8208L7.57442 17.6016L9.17282 16.0032V15.9984ZM9.19682 13.632C8.91842 13.152 8.75522 12.5952 8.75522 12C8.75522 11.9088 8.75522 11.8176 8.76482 11.7264C8.89922 10.1568 10.152 8.904 11.7216 8.7696C11.8128 8.76 11.904 8.76 11.9952 8.76C12.5904 8.76 13.1472 8.9232 13.6272 9.2016L9.19202 13.6368L9.19682 13.632ZM6.10562 16.7232C5.66402 16.4064 5.24162 16.0512 4.83842 15.6528C4.68482 15.504 4.53602 15.3504 4.38722 15.1872C3.19682 13.8912 2.52002 12.5712 2.25602 12C2.52002 11.4288 3.19682 10.1088 4.38722 8.8128C6.44642 6.5664 9.00962 5.424 11.9952 5.424C12.9456 5.424 13.8528 5.5392 14.7168 5.7696C15.3072 5.928 15.8736 6.1392 16.4208 6.4032L14.8224 8.0016C14.3472 7.6656 13.8096 7.4064 13.2288 7.2576C12.8352 7.1568 12.4224 7.0992 11.9952 7.0992C9.29282 7.0992 7.09922 9.2976 7.09922 11.9952C7.09922 12.4224 7.15202 12.8352 7.25762 13.2288C7.40642 13.8096 7.66082 14.3472 8.00162 14.8224L6.10562 16.7184V16.7232Z" fill="#77828E"/>
</svg>
