<?xml version="1.0" encoding="UTF-8"?>
<svg id="Layer_1" data-name="Layer 1" xmlns="http://www.w3.org/2000/svg" viewBox="0 0 100 100">
  <defs>
    <style>
      .cls-1 {
        fill: #3ac3b3;
        stroke-width: 0px;
      }
    </style>
  </defs>
  <path class="cls-1" d="m48.58,63.41c.09.09.2.18.31.25.05.03.1.05.15.08.06.04.13.07.2.1.07.03.13.04.2.06.06.02.11.04.17.05.13.03.26.04.39.04s.26-.01.39-.04c.06-.01.12-.03.17-.05.07-.02.13-.04.2-.06.07-.03.13-.07.2-.1.05-.03.1-.05.15-.08.11-.07.21-.16.31-.25l12-12c.78-.78.78-2.05,0-2.83-.78-.78-2.05-.78-2.83,0l-8.59,8.59v-31.17c0-1.1-.9-2-2-2s-2,.9-2,2v31.17l-8.59-8.59c-.78-.78-2.05-.78-2.83,0-.78.78-.78,2.05,0,2.83l12,12Z"/>
  <path class="cls-1" d="m71,42c-1.1,0-2,.9-2,2s.9,2,2,2c2.21,0,4,1.79,4,4v18c0,2.21-1.79,4-4,4H29c-2.21,0-4-1.79-4-4v-18c0-2.21,1.79-4,4-4,1.1,0,2-.9,2-2s-.9-2-2-2c-4.41,0-8,3.59-8,8v18c0,4.41,3.59,8,8,8h42c4.41,0,8-3.59,8-8v-18c0-4.41-3.59-8-8-8Z"/>
</svg>