<?xml version="1.0" encoding="UTF-8"?>
<svg id="Layer_1" data-name="Layer 1" xmlns="http://www.w3.org/2000/svg" viewBox="0 0 100 100">
  <defs>
    <style>
      .cls-1 {
        fill: #979797;
        stroke-width: 0px;
      }
    </style>
  </defs>
  <path class="cls-1" d="m50,21c-15.99,0-29,13.01-29,29s13.01,29,29,29,29-13.01,29-29-13.01-29-29-29Zm0,54c-13.79,0-25-11.21-25-25s11.21-25,25-25,25,11.21,25,25-11.21,25-25,25Zm13.77-31.27c.98.98.98,2.56,0,3.54l-12,12c-.49.49-1.13.73-1.77.73s-1.28-.24-1.77-.73l-12-12c-.98-.98-.98-2.56,0-3.54.98-.98,2.56-.98,3.54,0l10.23,10.23,10.23-10.23c.98-.98,2.56-.98,3.54,0Z"/>
</svg>