<svg width="23" height="22" viewBox="0 0 23 22" fill="none" xmlns="http://www.w3.org/2000/svg">
<path d="M13.875 1.83325H5.62496C5.13873 1.83325 4.67241 2.02641 4.3286 2.37022C3.98478 2.71404 3.79163 3.18036 3.79163 3.66659V18.3333C3.79163 18.8195 3.98478 19.2858 4.3286 19.6296C4.67241 19.9734 5.13873 20.1666 5.62496 20.1666H16.625C17.1112 20.1666 17.5775 19.9734 17.9213 19.6296C18.2651 19.2858 18.4583 18.8195 18.4583 18.3333V6.41659L13.875 1.83325Z" stroke="#77828E" stroke-width="2" stroke-linecap="round" stroke-linejoin="round"/>
<path d="M12.9583 1.83325V5.49992C12.9583 5.98615 13.1514 6.45246 13.4952 6.79628C13.839 7.1401 14.3054 7.33325 14.7916 7.33325H18.4583" stroke="#77828E" stroke-width="2" stroke-linecap="round" stroke-linejoin="round"/>
</svg>
