<?xml version="1.0" encoding="UTF-8"?>
<svg id="Layer_1" data-name="Layer 1" xmlns="http://www.w3.org/2000/svg" viewBox="0 0 100 100">
  <defs>
    <style>
      .cls-1 {
        fill: #fff;
        stroke-width: 0px;
      }
    </style>
  </defs>
  <path class="cls-1" d="m52.23,37c0,1.21-.98,2.19-2.19,2.19s-2.19-.98-2.19-2.19.98-2.19,2.19-2.19,2.19.98,2.19,2.19Zm26.77,13c0-15.99-13.01-29-29-29s-29,13.01-29,29,13.01,29,29,29,29-13.01,29-29Zm-4,0c0,13.79-11.21,25-25,25s-25-11.21-25-25,11.21-25,25-25,25,11.21,25,25Zm-23,15v-18c0-1.1-.9-2-2-2s-2,.9-2,2v18c0,1.1.9,2,2,2s2-.9,2-2Z"/>
</svg>