<?xml version="1.0" encoding="UTF-8"?>
<svg id="Layer_1" data-name="Layer 1" xmlns="http://www.w3.org/2000/svg" viewBox="0 0 100 100">
  <defs>
    <style>
      .cls-1 {
        fill: #fff;
        stroke-width: 0px;
      }
    </style>
  </defs>
  <path class="cls-1" d="m64.52,76.63c-.14,0-.27,0-.41-.01-21.88-1.34-39.38-18.85-40.72-40.72-.12-2.04.68-4.08,2.2-5.6l4.72-4.72c1.64-1.64,3.92-2.42,6.22-2.14,2.31.28,4.32,1.59,5.52,3.59l3.84,6.4c1.06,1.77.79,4.03-.68,5.5l-4.29,4.29c-.48.48-.59,1.22-.27,1.77,3.49,5.92,8.46,10.9,14.39,14.38h0c.54.32,1.29.21,1.77-.27l4.29-4.29c1.46-1.46,3.72-1.74,5.5-.68l6.4,3.84c2,1.2,3.3,3.21,3.58,5.52.28,2.31-.5,4.57-2.14,6.22l-4.72,4.72c-1.42,1.42-3.29,2.21-5.19,2.21Zm-28.92-50.25c-1.19,0-2.32.47-3.17,1.32l-4.72,4.72c-.91.91-1.4,2.12-1.33,3.29,1.25,20.37,17.54,36.66,37.91,37.91,1.18.08,2.38-.41,3.29-1.33l4.72-4.72c.99-.99,1.46-2.35,1.28-3.73-.17-1.39-.95-2.59-2.15-3.31l-6.4-3.84c-.59-.35-1.34-.26-1.83.23l-4.29,4.29c-1.45,1.46-3.68,1.76-5.41.74h0c-6.36-3.75-11.7-9.09-15.45-15.45-1.02-1.73-.72-3.96.74-5.41l4.29-4.29c.49-.49.58-1.24.23-1.83l-3.84-6.4c-.72-1.2-1.92-1.98-3.31-2.15-.19-.02-.37-.03-.56-.03Z"/>
</svg>