<?xml version="1.0" encoding="UTF-8"?>
<svg id="Layer_1" data-name="Layer 1" xmlns="http://www.w3.org/2000/svg" viewBox="0 0 100 100">
  <defs>
    <style>
      .cls-1 {
        fill: #9b9b9b;
        stroke-width: 0px;
      }
    </style>
  </defs>
  <path class="cls-1" d="m80.82,75.82l-12-12c3.73-4.8,5.96-10.82,5.97-17.37-.02-15.64-12.69-28.31-28.33-28.33-15.64.02-28.31,12.69-28.33,28.33.02,15.64,12.69,28.31,28.33,28.33,6.54,0,12.55-2.23,17.35-5.96l12,12c.67.67,1.57,1.04,2.52,1.04.93,0,1.83-.38,2.49-1.04,1.38-1.38,1.38-3.63,0-5.01Zm-55.6-29.36c.01-11.73,9.52-21.23,21.25-21.25,11.73.01,21.23,9.52,21.25,21.25,0,5.87-2.39,11.18-6.24,15.02,0,0,0,0,0,0,0,0,0,0,0,0-3.84,3.84-9.15,6.22-15.01,6.22-11.73-.01-21.23-9.52-21.25-21.25Z"/>
</svg>