<?xml version="1.0" encoding="UTF-8"?>
<svg id="Layer_1" data-name="Layer 1" xmlns="http://www.w3.org/2000/svg" viewBox="0 0 100 100">
  <defs>
    <style>
      .cls-1 {
        fill: #fff;
        stroke-width: 0px;
      }
    </style>
  </defs>
  <path class="cls-1" d="m56.31,78.47c-.56,0-1.09-.31-1.35-.85l-2.52-5.23c-1.72.2-3.15.2-4.88,0l-2.52,5.23c-.17.36-.48.63-.86.77-.37.13-.79.11-1.15-.06l-10.81-5.21c-.75-.36-1.06-1.26-.7-2l2.52-5.24c-1.16-1.16-2.18-2.44-3.05-3.81l-5.65,1.29c-.81.19-1.61-.32-1.8-1.13l-2.67-11.7c-.09-.39-.02-.79.19-1.13.21-.34.55-.58.94-.66l5.67-1.29c.19-1.64.55-3.23,1.07-4.76l-4.53-3.61c-.31-.25-.51-.61-.55-1-.04-.4.07-.79.32-1.1l7.48-9.38c.52-.65,1.46-.75,2.11-.24l4.53,3.61c1.39-.87,2.86-1.58,4.4-2.12v-5.79c0-.83.67-1.5,1.5-1.5h12c.83,0,1.5.67,1.5,1.5v5.79c1.54.54,3.01,1.25,4.4,2.12l4.53-3.61c.65-.51,1.59-.41,2.11.24l7.48,9.38c.52.65.41,1.59-.24,2.11l-4.53,3.61c.53,1.53.89,3.12,1.07,4.76l5.67,1.29c.39.09.72.33.94.66.21.34.28.74.19,1.13l-2.67,11.7c-.09.39-.33.72-.66.94s-.74.28-1.13.19l-5.65-1.29c-.87,1.37-1.89,2.64-3.05,3.81l2.52,5.24c.17.36.2.77.06,1.15-.13.38-.41.68-.77.86l-10.81,5.21c-.21.1-.43.15-.65.15Zm-2.99-9.22c.57,0,1.1.32,1.35.85l2.34,4.86,8.11-3.9-2.34-4.87c-.29-.6-.15-1.31.34-1.76,1.55-1.41,2.84-3.03,3.85-4.81.33-.58.99-.87,1.64-.72l5.25,1.2,2-8.77-5.27-1.2c-.65-.15-1.12-.7-1.16-1.36-.14-2.1-.59-4.12-1.36-6.01-.25-.62-.06-1.32.46-1.73l4.21-3.36-5.61-7.04-4.21,3.36c-.52.41-1.25.44-1.79.06-1.71-1.19-3.57-2.09-5.56-2.68-.64-.19-1.07-.77-1.07-1.44v-5.38h-9v5.38c0,.66-.44,1.25-1.07,1.44-1.98.59-3.85,1.49-5.56,2.68-.54.38-1.27.36-1.79-.06l-4.21-3.36-5.61,7.04,4.21,3.36c.52.41.7,1.12.46,1.73-.76,1.89-1.22,3.92-1.36,6.01-.04.66-.52,1.22-1.16,1.36l-5.27,1.2,2,8.77,5.25-1.2c.65-.15,1.31.15,1.64.72,1.01,1.78,2.3,3.4,3.85,4.81.49.45.63,1.16.34,1.76l-2.34,4.87,8.11,3.9,2.34-4.86c.29-.6.93-.93,1.59-.83,2.27.36,3.89.36,6.16,0,.08-.01.16-.02.24-.02Z"/>
  <path class="cls-1" d="m50,60.53c-5.79,0-10.5-4.71-10.5-10.5s4.71-10.5,10.5-10.5,10.5,4.71,10.5,10.5-4.71,10.5-10.5,10.5Zm0-18c-4.14,0-7.5,3.36-7.5,7.5s3.36,7.5,7.5,7.5,7.5-3.36,7.5-7.5-3.36-7.5-7.5-7.5Z"/>
</svg>