<svg width="24" height="24" viewBox="0 0 24 24" fill="none" xmlns="http://www.w3.org/2000/svg">
    <path d="M21.9119 4.512L19.4879 2.088C18.6383 1.2384 17.2511 1.2384 16.4015 2.088L13.7951 4.6944L7.45914 11.0304C7.32474 11.1648 7.23834 11.3376 7.21434 11.5296L6.56154 16.4688C6.52794 16.7376 6.61914 17.0016 6.80634 17.1936C6.96954 17.3568 7.19034 17.448 7.41594 17.448C7.45434 17.448 7.49274 17.448 7.53114 17.4384L12.4703 16.7856C12.6575 16.7616 12.8351 16.6752 12.9695 16.5408L21.9167 7.5936C22.7663 6.744 22.7663 5.3568 21.9167 4.5072L21.9119 4.512ZM11.9519 15.1152L8.41914 15.5808L8.88474 12.048L14.4047 6.528L17.4719 9.5952L11.9519 15.1152ZM20.6927 6.3744L18.6911 8.376L15.6239 5.3088L17.6255 3.3072C17.7119 3.2208 17.8271 3.1728 17.9471 3.1728C18.0671 3.1728 18.1823 3.2208 18.2687 3.3072L20.6927 5.7312C20.8703 5.9088 20.8703 6.1968 20.6927 6.3744Z" fill="#77828E"/>
    <path d="M20.6112 14.2704C20.136 14.2704 19.7472 14.6592 19.7472 15.1344V19.0512C19.7472 20.0304 18.9504 20.8224 17.976 20.8224H4.94879C3.96959 20.8224 3.17758 20.0256 3.17758 19.0512V6.024C3.17758 5.0448 3.97439 4.2528 4.94879 4.2528H8.86558C9.34078 4.2528 9.72958 3.864 9.72958 3.3888C9.72958 2.9136 9.34078 2.5248 8.86558 2.5248H4.94879C3.01919 2.5248 1.44958 4.0944 1.44958 6.024V19.0512C1.44958 20.9808 3.01919 22.5504 4.94879 22.5504H17.976C19.9056 22.5504 21.4752 20.9808 21.4752 19.0512V15.1344C21.4752 14.6592 21.0864 14.2704 20.6112 14.2704Z" fill="#77828E"/>
</svg>
