<?xml version="1.0" encoding="UTF-8"?>
<svg id="Layer_1" data-name="Layer 1" xmlns="http://www.w3.org/2000/svg" viewBox="0 0 100 100">
  <defs>
    <style>
      .cls-1 {
        fill: #fff;
        stroke-width: 0px;
      }
    </style>
  </defs>
  <path class="cls-1" d="m50,30.5c-5.79,0-10.5,4.71-10.5,10.5s4.71,10.5,10.5,10.5,10.5-4.71,10.5-10.5-4.71-10.5-10.5-10.5Zm0,18c-4.14,0-7.5-3.36-7.5-7.5s3.36-7.5,7.5-7.5,7.5,3.36,7.5,7.5-3.36,7.5-7.5,7.5Z"/>
  <path class="cls-1" d="m81.5,50c0-17.37-14.13-31.5-31.5-31.5s-31.5,14.13-31.5,31.5c0,10.2,4.88,19.28,12.42,25.04.09.1.2.18.32.25,5.24,3.9,11.73,6.21,18.75,6.21s13.51-2.31,18.76-6.21c.12-.07.23-.15.32-.24,7.55-5.76,12.43-14.84,12.43-25.05Zm-48,23.22v-2.22c0-5.79,4.71-10.5,10.5-10.5h12c5.79,0,10.5,4.71,10.5,10.5v2.22c-4.66,3.32-10.35,5.28-16.5,5.28s-11.84-1.96-16.5-5.28Zm35.99-2.45c-.13-7.34-6.12-13.27-13.49-13.27h-12c-7.37,0-13.36,5.93-13.49,13.27-5.54-5.2-9.01-12.59-9.01-20.77,0-15.71,12.79-28.5,28.5-28.5s28.5,12.79,28.5,28.5c0,8.18-3.47,15.56-9.01,20.77Z"/>
</svg>