<?xml version="1.0" encoding="UTF-8"?>
<svg id="Layer_2" data-name="Layer 2" xmlns="http://www.w3.org/2000/svg" xmlns:xlink="http://www.w3.org/1999/xlink" viewBox="0 0 264.81 264.81">
  <defs>
    <style>
      .cls-1 {
        fill: url(#linear-gradient);
      }

      .cls-1, .cls-2 {
        stroke-width: 0px;
      }

      .cls-2 {
        fill: #fff;
      }
    </style>
    <linearGradient id="linear-gradient" x1="132.4" y1="8.67" x2="132.4" y2="254.67" gradientUnits="userSpaceOnUse">
      <stop offset="0" stop-color="#67c7a7"/>
      <stop offset="1" stop-color="#419ebb"/>
    </linearGradient>
  </defs>
  <rect class="cls-1" x="6.12" y="6.12" width="252.57" height="252.57"/>
  <g>
    <path class="cls-2" d="m52.44,224.03l-10.09-34.04c-.15-.56.1-.97.7-.97h5.77c.5,0,.79.26.94.71l6.51,24.6c.05.26.35.26.4,0l6.41-24.55c.15-.46.45-.77.94-.77h5.62c.6,0,.89.41.7.97l-10.24,34.04c-.15.46-.45.71-.94.71h-5.77c-.5,0-.8-.26-.94-.71Z"/>
    <path class="cls-2" d="m98.82,195.2h-16.01c-.15,0-.3.1-.3.31v7.81c0,.2.1.31.3.31h10.39c.55,0,.84.31.84.87v4.44c0,.56-.3.87-.84.87h-10.39c-.15,0-.3.1-.3.31v8.17c0,.15.1.31.3.31h16.01c.55,0,.85.31.85.87v4.44c0,.56-.3.87-.85.87h-22.47c-.55,0-.85-.31-.85-.87v-33.99c0-.56.3-.87.85-.87h22.47c.55,0,.85.31.85.87v4.44c0,.56-.3.87-.85.87Z"/>
    <path class="cls-2" d="m104.83,212.75v-11.79c0-7.45,5.12-12.35,12.92-12.35s12.87,4.69,12.87,11.79c0,.31-.3.51-.8.56l-5.32.36c-.55.05-.89-.1-.89-.26v-.31c0-3.57-2.34-5.97-5.86-5.97s-5.91,2.4-5.91,5.97v12.3c0,3.52,2.34,5.92,5.91,5.92s5.86-2.4,5.86-5.92c0-.36.3-.61.85-.56l5.32.26c.5.05.85.1.85.26v.26c0,7.14-5.17,11.89-12.87,11.89s-12.92-4.95-12.92-12.4Z"/>
    <path class="cls-2" d="m160.94,189.89v4.49c0,.56-.3.87-.85.87h-8.6c-.2,0-.3.1-.3.31v28.32c0,.56-.3.87-.84.87h-5.32c-.55,0-.85-.31-.85-.87v-28.32c0-.2-.1-.31-.3-.31h-8.35c-.55,0-.85-.31-.85-.87v-4.49c0-.56.3-.87.85-.87h24.55c.55,0,.85.31.85.87Z"/>
    <path class="cls-2" d="m164.32,212.35v-10.92c0-7.66,5.22-12.81,13.07-12.81s13.12,5.15,13.12,12.81v10.92c0,7.76-5.22,12.96-13.12,12.96s-13.07-5.21-13.07-12.96Zm19.19.26v-11.23c0-3.98-2.44-6.58-6.11-6.58s-6.06,2.6-6.06,6.58v11.23c0,3.93,2.44,6.53,6.06,6.53s6.11-2.6,6.11-6.53Z"/>
    <path class="cls-2" d="m215.17,224.08l-6.11-13.88c-.05-.15-.2-.26-.35-.26h-4.52c-.2,0-.3.1-.3.31v13.63c0,.56-.3.87-.85.87h-5.32c-.55,0-.85-.31-.85-.87v-34.04c0-.56.3-.87.85-.87h13.97c6.41,0,10.64,4.34,10.64,10.77,0,4.64-2.44,8.11-6.36,9.49-.2.05-.25.26-.15.41l6.56,14.09c.3.56.05,1.02-.6,1.02h-5.62c-.45,0-.8-.26-.99-.66Zm-11.28-28.58v8.57c0,.15.1.31.3.31h6.46c2.78,0,4.72-1.84,4.72-4.54s-1.94-4.64-4.72-4.64h-6.46c-.2,0-.3.1-.3.31Z"/>
  </g>
  <g>
    <g>
      <path class="cls-2" d="m129.8,98.44v15.69c0,8.33-4.71,14.36-12.21,16.25-.2.07-.34.21-.34.42v5.32c0,.77-.41,1.19-1.16,1.19h-7.29c-.75,0-1.16-.42-1.16-1.19v-5.25c0-.21-.14-.35-.34-.42-7.5-1.89-12.34-7.91-12.34-16.32v-15.69c0-10.58,7.02-17.58,17.39-17.58s17.45,7,17.45,17.58Zm-9.61-.49c0-5.11-3.14-8.61-7.84-8.61s-7.77,3.5-7.77,8.61v15.97c0,5.11,3.14,8.61,7.77,8.61s7.84-3.5,7.84-8.61v-15.97Z"/>
      <path class="cls-2" d="m159.8,129.53l-8.39-19.05c-.07-.21-.27-.35-.47-.35h-6.21c-.27,0-.41.14-.41.42v18.7c0,.77-.41,1.19-1.16,1.19h-7.29c-.75,0-1.16-.42-1.16-1.19v-46.71c0-.77.41-1.19,1.16-1.19h19.16c8.8,0,14.59,5.95,14.59,14.77,0,6.37-3.34,11.14-8.73,13.03-.27.07-.34.35-.2.56l9,19.33c.41.77.07,1.4-.82,1.4h-7.7c-.62,0-1.09-.35-1.36-.91Zm-15.48-39.22v11.77c0,.21.14.42.41.42h8.86c3.82,0,6.48-2.52,6.48-6.23s-2.66-6.37-6.48-6.37h-8.86c-.27,0-.41.14-.41.42Z"/>
    </g>
    <g>
      <path class="cls-2" d="m183.01,58.48v101.2h-101.2V58.48h101.2m12.08-12.08h-125.36v125.36h125.36V46.4h0Z"/>
      <path class="cls-2" d="m183.01,58.48v101.2h-101.2V58.48h101.2m12.08-12.08h-125.36v125.36h125.36V46.4h0Z"/>
    </g>
  </g>
</svg>